<mxfile host="app.diagrams.net" modified="2024-07-10T15:15:10.016Z" agent="5.0 (Windows NT 10.0; Win64; x64) AppleWebKit/537.36 (KHTML, like Gecko) Chrome/126.0.0.0 Safari/537.36" etag="GtXzqQ9TTSWqx--pbBis" version="20.8.23" type="github">
  <diagram name="PÃ¡gina-1" id="gRivkRYfksaWGxRl3aty">
    <mxGraphModel dx="1434" dy="738" grid="1" gridSize="10" guides="1" tooltips="1" connect="1" arrows="1" fold="1" page="1" pageScale="1" pageWidth="827" pageHeight="1169" math="0" shadow="0">
      <root>
        <mxCell id="0" />
        <mxCell id="1" parent="0" />
        <mxCell id="0_ZtZzTpt0OcUXG0mEao-8" value="AWS Cloud" style="points=[[0,0],[0.25,0],[0.5,0],[0.75,0],[1,0],[1,0.25],[1,0.5],[1,0.75],[1,1],[0.75,1],[0.5,1],[0.25,1],[0,1],[0,0.75],[0,0.5],[0,0.25]];outlineConnect=0;gradientColor=none;html=1;whiteSpace=wrap;fontSize=12;fontStyle=0;container=1;pointerEvents=0;collapsible=0;recursiveResize=0;shape=mxgraph.aws4.group;grIcon=mxgraph.aws4.group_aws_cloud_alt;strokeColor=#232F3E;fillColor=none;verticalAlign=top;align=left;spacingLeft=30;fontColor=#232F3E;dashed=0;" vertex="1" parent="1">
          <mxGeometry x="27" y="40" width="800" height="590" as="geometry" />
        </mxCell>
        <mxCell id="0_ZtZzTpt0OcUXG0mEao-6" value="" style="shape=actor;whiteSpace=wrap;html=1;" vertex="1" parent="0_ZtZzTpt0OcUXG0mEao-8">
          <mxGeometry x="10" y="210" width="40" height="60" as="geometry" />
        </mxCell>
        <mxCell id="0_ZtZzTpt0OcUXG0mEao-15" style="edgeStyle=orthogonalEdgeStyle;rounded=0;orthogonalLoop=1;jettySize=auto;html=1;" edge="1" parent="0_ZtZzTpt0OcUXG0mEao-8" source="0_ZtZzTpt0OcUXG0mEao-3" target="0_ZtZzTpt0OcUXG0mEao-9">
          <mxGeometry relative="1" as="geometry" />
        </mxCell>
        <mxCell id="0_ZtZzTpt0OcUXG0mEao-3" value="" style="verticalLabelPosition=bottom;sketch=0;aspect=fixed;html=1;verticalAlign=top;strokeColor=none;align=center;outlineConnect=0;shape=mxgraph.citrix.browser;" vertex="1" parent="0_ZtZzTpt0OcUXG0mEao-8">
          <mxGeometry x="83" y="203.75" width="47.5" height="72.5" as="geometry" />
        </mxCell>
        <mxCell id="0_ZtZzTpt0OcUXG0mEao-7" value="" style="edgeStyle=orthogonalEdgeStyle;rounded=0;orthogonalLoop=1;jettySize=auto;html=1;" edge="1" parent="0_ZtZzTpt0OcUXG0mEao-8" source="0_ZtZzTpt0OcUXG0mEao-6" target="0_ZtZzTpt0OcUXG0mEao-3">
          <mxGeometry relative="1" as="geometry" />
        </mxCell>
        <mxCell id="0_ZtZzTpt0OcUXG0mEao-20" style="edgeStyle=orthogonalEdgeStyle;rounded=0;orthogonalLoop=1;jettySize=auto;html=1;exitX=1;exitY=0.5;exitDx=0;exitDy=0;" edge="1" parent="0_ZtZzTpt0OcUXG0mEao-8" source="0_ZtZzTpt0OcUXG0mEao-9" target="0_ZtZzTpt0OcUXG0mEao-2">
          <mxGeometry relative="1" as="geometry" />
        </mxCell>
        <mxCell id="0_ZtZzTpt0OcUXG0mEao-9" value="AWS AMPLIFY" style="fillColor=#EFF0F3;strokeColor=none;dashed=0;verticalAlign=top;fontStyle=1;fontColor=#232F3D;" vertex="1" parent="0_ZtZzTpt0OcUXG0mEao-8">
          <mxGeometry x="186" y="70" width="252.5" height="222" as="geometry" />
        </mxCell>
        <mxCell id="0_ZtZzTpt0OcUXG0mEao-10" value="" style="shape=image;html=1;verticalAlign=top;verticalLabelPosition=bottom;labelBackgroundColor=#ffffff;imageAspect=0;aspect=fixed;image=https://cdn3.iconfinder.com/data/icons/brands-pack/240/react-128.png" vertex="1" parent="0_ZtZzTpt0OcUXG0mEao-8">
          <mxGeometry x="226" y="110" width="70" height="70" as="geometry" />
        </mxCell>
        <mxCell id="0_ZtZzTpt0OcUXG0mEao-11" value="" style="sketch=0;points=[[0,0,0],[0.25,0,0],[0.5,0,0],[0.75,0,0],[1,0,0],[0,1,0],[0.25,1,0],[0.5,1,0],[0.75,1,0],[1,1,0],[0,0.25,0],[0,0.5,0],[0,0.75,0],[1,0.25,0],[1,0.5,0],[1,0.75,0]];outlineConnect=0;fontColor=#232F3E;gradientColor=#F54749;gradientDirection=north;fillColor=#C7131F;strokeColor=#ffffff;dashed=0;verticalLabelPosition=bottom;verticalAlign=top;align=center;html=1;fontSize=12;fontStyle=0;aspect=fixed;shape=mxgraph.aws4.resourceIcon;resIcon=mxgraph.aws4.cognito;" vertex="1" parent="0_ZtZzTpt0OcUXG0mEao-8">
          <mxGeometry x="342" y="115" width="60" height="60" as="geometry" />
        </mxCell>
        <mxCell id="0_ZtZzTpt0OcUXG0mEao-12" value="" style="shape=image;html=1;verticalAlign=top;verticalLabelPosition=bottom;labelBackgroundColor=#ffffff;imageAspect=0;aspect=fixed;image=https://cdn4.iconfinder.com/data/icons/ionicons/512/icon-social-github-128.png" vertex="1" parent="0_ZtZzTpt0OcUXG0mEao-8">
          <mxGeometry x="269.25" y="190.25" width="86" height="86" as="geometry" />
        </mxCell>
        <mxCell id="0_ZtZzTpt0OcUXG0mEao-22" style="edgeStyle=orthogonalEdgeStyle;rounded=0;orthogonalLoop=1;jettySize=auto;html=1;entryX=0;entryY=0.5;entryDx=0;entryDy=0;entryPerimeter=0;" edge="1" parent="0_ZtZzTpt0OcUXG0mEao-8" target="0_ZtZzTpt0OcUXG0mEao-16">
          <mxGeometry relative="1" as="geometry">
            <mxPoint x="695" y="148" as="sourcePoint" />
            <Array as="points">
              <mxPoint x="695" y="160" />
              <mxPoint x="506" y="160" />
              <mxPoint x="506" y="219" />
            </Array>
          </mxGeometry>
        </mxCell>
        <mxCell id="0_ZtZzTpt0OcUXG0mEao-14" value="" style="sketch=0;points=[[0,0,0],[0.25,0,0],[0.5,0,0],[0.75,0,0],[1,0,0],[0,1,0],[0.25,1,0],[0.5,1,0],[0.75,1,0],[1,1,0],[0,0.25,0],[0,0.5,0],[0,0.75,0],[1,0.25,0],[1,0.5,0],[1,0.75,0]];outlineConnect=0;fontColor=#232F3E;gradientColor=#F78E04;gradientDirection=north;fillColor=#D05C17;strokeColor=#ffffff;dashed=0;verticalLabelPosition=bottom;verticalAlign=top;align=center;html=1;fontSize=12;fontStyle=0;aspect=fixed;shape=mxgraph.aws4.resourceIcon;resIcon=mxgraph.aws4.lambda;" vertex="1" parent="0_ZtZzTpt0OcUXG0mEao-8">
          <mxGeometry x="663" y="70" width="78" height="78" as="geometry" />
        </mxCell>
        <mxCell id="0_ZtZzTpt0OcUXG0mEao-21" style="edgeStyle=orthogonalEdgeStyle;rounded=0;orthogonalLoop=1;jettySize=auto;html=1;exitX=1;exitY=0.5;exitDx=0;exitDy=0;exitPerimeter=0;entryX=0;entryY=0.5;entryDx=0;entryDy=0;entryPerimeter=0;" edge="1" parent="0_ZtZzTpt0OcUXG0mEao-8" source="0_ZtZzTpt0OcUXG0mEao-2">
          <mxGeometry relative="1" as="geometry">
            <mxPoint x="666" y="109" as="targetPoint" />
          </mxGeometry>
        </mxCell>
        <mxCell id="0_ZtZzTpt0OcUXG0mEao-2" value="" style="sketch=0;points=[[0,0,0],[0.25,0,0],[0.5,0,0],[0.75,0,0],[1,0,0],[0,1,0],[0.25,1,0],[0.5,1,0],[0.75,1,0],[1,1,0],[0,0.25,0],[0,0.5,0],[0,0.75,0],[1,0.25,0],[1,0.5,0],[1,0.75,0]];outlineConnect=0;fontColor=#232F3E;gradientColor=#945DF2;gradientDirection=north;fillColor=#5A30B5;strokeColor=#ffffff;dashed=0;verticalLabelPosition=bottom;verticalAlign=top;align=center;html=1;fontSize=12;fontStyle=0;aspect=fixed;shape=mxgraph.aws4.resourceIcon;resIcon=mxgraph.aws4.cloudfront;" vertex="1" parent="0_ZtZzTpt0OcUXG0mEao-8">
          <mxGeometry x="506" y="70" width="78" height="78" as="geometry" />
        </mxCell>
        <mxCell id="0_ZtZzTpt0OcUXG0mEao-26" style="edgeStyle=orthogonalEdgeStyle;rounded=0;orthogonalLoop=1;jettySize=auto;html=1;entryX=0;entryY=0.5;entryDx=0;entryDy=0;entryPerimeter=0;" edge="1" parent="0_ZtZzTpt0OcUXG0mEao-8" source="0_ZtZzTpt0OcUXG0mEao-16">
          <mxGeometry relative="1" as="geometry">
            <mxPoint x="666" y="219" as="targetPoint" />
          </mxGeometry>
        </mxCell>
        <mxCell id="0_ZtZzTpt0OcUXG0mEao-40" value="" style="edgeStyle=orthogonalEdgeStyle;rounded=0;orthogonalLoop=1;jettySize=auto;html=1;" edge="1" parent="0_ZtZzTpt0OcUXG0mEao-8" source="0_ZtZzTpt0OcUXG0mEao-16">
          <mxGeometry relative="1" as="geometry">
            <mxPoint x="666" y="219" as="targetPoint" />
          </mxGeometry>
        </mxCell>
        <mxCell id="0_ZtZzTpt0OcUXG0mEao-16" value="" style="sketch=0;points=[[0,0,0],[0.25,0,0],[0.5,0,0],[0.75,0,0],[1,0,0],[0,1,0],[0.25,1,0],[0.5,1,0],[0.75,1,0],[1,1,0],[0,0.25,0],[0,0.5,0],[0,0.75,0],[1,0.25,0],[1,0.5,0],[1,0.75,0]];outlineConnect=0;fontColor=#232F3E;gradientColor=#F78E04;gradientDirection=north;fillColor=#D05C17;strokeColor=#ffffff;dashed=0;verticalLabelPosition=bottom;verticalAlign=top;align=center;html=1;fontSize=12;fontStyle=0;aspect=fixed;shape=mxgraph.aws4.resourceIcon;resIcon=mxgraph.aws4.lambda;" vertex="1" parent="0_ZtZzTpt0OcUXG0mEao-8">
          <mxGeometry x="526" y="180" width="78" height="78" as="geometry" />
        </mxCell>
        <mxCell id="0_ZtZzTpt0OcUXG0mEao-1" value="" style="sketch=0;points=[[0,0,0],[0.25,0,0],[0.5,0,0],[0.75,0,0],[1,0,0],[0,1,0],[0.25,1,0],[0.5,1,0],[0.75,1,0],[1,1,0],[0,0.25,0],[0,0.5,0],[0,0.75,0],[1,0.25,0],[1,0.5,0],[1,0.75,0]];outlineConnect=0;fontColor=#232F3E;gradientColor=#4AB29A;gradientDirection=north;fillColor=#116D5B;strokeColor=#ffffff;dashed=0;verticalLabelPosition=bottom;verticalAlign=top;align=center;html=1;fontSize=12;fontStyle=0;aspect=fixed;shape=mxgraph.aws4.resourceIcon;resIcon=mxgraph.aws4.augmented_ai;" vertex="1" parent="0_ZtZzTpt0OcUXG0mEao-8">
          <mxGeometry x="438.5" y="348.5" width="78" height="78" as="geometry" />
        </mxCell>
        <mxCell id="0_ZtZzTpt0OcUXG0mEao-42" style="edgeStyle=orthogonalEdgeStyle;rounded=0;orthogonalLoop=1;jettySize=auto;html=1;exitX=0.5;exitY=0;exitDx=0;exitDy=0;exitPerimeter=0;entryX=1;entryY=0.5;entryDx=0;entryDy=0;entryPerimeter=0;" edge="1" parent="0_ZtZzTpt0OcUXG0mEao-8" source="0_ZtZzTpt0OcUXG0mEao-17" target="0_ZtZzTpt0OcUXG0mEao-1">
          <mxGeometry relative="1" as="geometry">
            <Array as="points">
              <mxPoint x="543" y="479" />
              <mxPoint x="543" y="388" />
            </Array>
          </mxGeometry>
        </mxCell>
        <mxCell id="0_ZtZzTpt0OcUXG0mEao-17" value="" style="outlineConnect=0;dashed=0;verticalLabelPosition=bottom;verticalAlign=top;align=center;html=1;shape=mxgraph.aws3.dynamo_db;fillColor=#2E73B8;gradientColor=none;" vertex="1" parent="0_ZtZzTpt0OcUXG0mEao-8">
          <mxGeometry x="513" y="479.25" width="64" height="75" as="geometry" />
        </mxCell>
        <mxCell id="0_ZtZzTpt0OcUXG0mEao-44" style="edgeStyle=orthogonalEdgeStyle;rounded=0;orthogonalLoop=1;jettySize=auto;html=1;" edge="1" parent="0_ZtZzTpt0OcUXG0mEao-8" target="0_ZtZzTpt0OcUXG0mEao-1">
          <mxGeometry relative="1" as="geometry">
            <mxPoint x="705" y="258" as="sourcePoint" />
            <Array as="points">
              <mxPoint x="705" y="270" />
              <mxPoint x="478" y="270" />
            </Array>
          </mxGeometry>
        </mxCell>
        <mxCell id="0_ZtZzTpt0OcUXG0mEao-45" style="edgeStyle=orthogonalEdgeStyle;rounded=0;orthogonalLoop=1;jettySize=auto;html=1;entryX=1;entryY=0.5;entryDx=0;entryDy=0;entryPerimeter=0;" edge="1" parent="0_ZtZzTpt0OcUXG0mEao-8" target="0_ZtZzTpt0OcUXG0mEao-17">
          <mxGeometry relative="1" as="geometry">
            <mxPoint x="705" y="258" as="sourcePoint" />
            <Array as="points">
              <mxPoint x="705" y="518" />
            </Array>
          </mxGeometry>
        </mxCell>
        <mxCell id="0_ZtZzTpt0OcUXG0mEao-18" value="" style="sketch=0;points=[[0,0,0],[0.25,0,0],[0.5,0,0],[0.75,0,0],[1,0,0],[0,1,0],[0.25,1,0],[0.5,1,0],[0.75,1,0],[1,1,0],[0,0.25,0],[0,0.5,0],[0,0.75,0],[1,0.25,0],[1,0.5,0],[1,0.75,0]];outlineConnect=0;fontColor=#232F3E;gradientColor=#FF4F8B;gradientDirection=north;fillColor=#BC1356;strokeColor=#ffffff;dashed=0;verticalLabelPosition=bottom;verticalAlign=top;align=center;html=1;fontSize=12;fontStyle=0;aspect=fixed;shape=mxgraph.aws4.resourceIcon;resIcon=mxgraph.aws4.step_functions;" vertex="1" parent="0_ZtZzTpt0OcUXG0mEao-8">
          <mxGeometry x="663" y="180" width="78" height="78" as="geometry" />
        </mxCell>
        <mxCell id="0_ZtZzTpt0OcUXG0mEao-46" style="edgeStyle=orthogonalEdgeStyle;rounded=0;orthogonalLoop=1;jettySize=auto;html=1;entryX=0;entryY=0.5;entryDx=0;entryDy=0;entryPerimeter=0;" edge="1" parent="0_ZtZzTpt0OcUXG0mEao-8" source="0_ZtZzTpt0OcUXG0mEao-27" target="0_ZtZzTpt0OcUXG0mEao-1">
          <mxGeometry relative="1" as="geometry">
            <Array as="points">
              <mxPoint x="413" y="388" />
            </Array>
          </mxGeometry>
        </mxCell>
        <mxCell id="0_ZtZzTpt0OcUXG0mEao-27" value="" style="sketch=0;outlineConnect=0;fontColor=#232F3E;gradientColor=none;fillColor=#3F8624;strokeColor=none;dashed=0;verticalLabelPosition=bottom;verticalAlign=top;align=center;html=1;fontSize=12;fontStyle=0;aspect=fixed;pointerEvents=1;shape=mxgraph.aws4.bucket_with_objects;" vertex="1" parent="0_ZtZzTpt0OcUXG0mEao-8">
          <mxGeometry x="383" y="479.25" width="70.67" height="73.5" as="geometry" />
        </mxCell>
        <mxCell id="0_ZtZzTpt0OcUXG0mEao-28" value="" style="sketch=0;points=[[0,0,0],[0.25,0,0],[0.5,0,0],[0.75,0,0],[1,0,0],[0,1,0],[0.25,1,0],[0.5,1,0],[0.75,1,0],[1,1,0],[0,0.25,0],[0,0.5,0],[0,0.75,0],[1,0.25,0],[1,0.5,0],[1,0.75,0]];outlineConnect=0;fontColor=#232F3E;gradientColor=#F54749;gradientDirection=north;fillColor=#C7131F;strokeColor=#ffffff;dashed=0;verticalLabelPosition=bottom;verticalAlign=top;align=center;html=1;fontSize=12;fontStyle=0;aspect=fixed;shape=mxgraph.aws4.resourceIcon;resIcon=mxgraph.aws4.amplify;" vertex="1" parent="0_ZtZzTpt0OcUXG0mEao-8">
          <mxGeometry x="186" y="70" width="30" height="30" as="geometry" />
        </mxCell>
        <mxCell id="0_ZtZzTpt0OcUXG0mEao-34" value="FRONTEND" style="fillColor=none;strokeColor=#5A6C86;dashed=1;verticalAlign=top;fontStyle=1;fontColor=#5A6C86;" vertex="1" parent="0_ZtZzTpt0OcUXG0mEao-8">
          <mxGeometry x="167.25" y="44" width="290" height="260" as="geometry" />
        </mxCell>
        <mxCell id="0_ZtZzTpt0OcUXG0mEao-37" value="RAGÂ  Â  Â  Â  Â  Â  Â  Â  Â  Â  Â " style="fillColor=none;strokeColor=#5A6C86;dashed=1;verticalAlign=top;fontStyle=1;fontColor=#5A6C86;" vertex="1" parent="0_ZtZzTpt0OcUXG0mEao-8">
          <mxGeometry x="332.5" y="310" width="290" height="260" as="geometry" />
        </mxCell>
        <mxCell id="0_ZtZzTpt0OcUXG0mEao-36" value="BACKEND" style="fillColor=none;strokeColor=#5A6C86;dashed=1;verticalAlign=top;fontStyle=1;fontColor=#5A6C86;" vertex="1" parent="0_ZtZzTpt0OcUXG0mEao-8">
          <mxGeometry x="463" y="44" width="290" height="260" as="geometry" />
        </mxCell>
        <mxCell id="0_ZtZzTpt0OcUXG0mEao-48" value="Title" style="text;strokeColor=none;fillColor=none;html=1;fontSize=24;fontStyle=1;verticalAlign=middle;align=center;" vertex="1" parent="0_ZtZzTpt0OcUXG0mEao-8">
          <mxGeometry x="116" y="370" width="100" height="40" as="geometry" />
        </mxCell>
      </root>
    </mxGraphModel>
  </diagram>
</mxfile>
